<mxfile host="app.diagrams.net" modified="2023-12-09T01:56:05.943Z" agent="Mozilla/5.0 (Macintosh; Intel Mac OS X 10_15_7) AppleWebKit/537.36 (KHTML, like Gecko) Chrome/120.0.0.0 Safari/537.36" version="22.1.7" etag="DYh4PNoP0I_qnu_3a7a8" type="github">
  <diagram name="第 1 页" id="8qOQW6mkASxB_bOApF8K">
    <mxGraphModel>
      <root>
        <mxCell id="0" />
        <mxCell id="1" parent="0" />
      </root>
    </mxGraphModel>
  </diagram>
</mxfile>
